<svg width="32" height="32" viewBox="0 0 32 32" fill="none" xmlns="http://www.w3.org/2000/svg">
<path fill-rule="evenodd" clip-rule="evenodd" d="M4.90319 31.0002C8.55722 31.0002 12.0733 29.6046 14.7327 27.0987L16.4721 25.4598C17.1905 24.7829 17.8764 24.0732 18.5275 23.3333H25.2436C26.0632 23.3333 26.8227 22.9033 27.2444 22.2005L30.856 16.1812C31.0224 15.9038 31.0444 15.5632 30.9151 15.2667C30.7857 14.9703 30.521 14.7547 30.2045 14.6881L24.109 13.4048C24.0574 13.3392 24.0003 13.2767 23.9378 13.218L21.2765 10.7205L18.7806 8.06081C18.7219 7.99829 18.6594 7.9412 18.5937 7.88961L17.3104 1.79399C17.2438 1.47751 17.0282 1.2128 16.7318 1.08345C16.4354 0.954111 16.0947 0.97611 15.8174 1.14251L9.79804 4.7541C9.09523 5.17579 8.6652 5.9353 8.6652 6.75492V13.4715C7.925 14.123 7.21507 14.8092 6.53786 15.5281L4.90041 17.2663C2.3942 19.9266 0.998972 23.4439 1.00004 27.0989L1.0005 28.6675C1.00088 29.9559 2.04543 31.0002 3.33383 31.0002H4.90319ZM10.6652 11.8506C11.1087 11.52 11.5611 11.201 12.0219 10.8938L16.5472 7.87693L15.6425 3.57979L10.827 6.46909C10.7266 6.52933 10.6652 6.63783 10.6652 6.75492V11.8506ZM24.1217 15.4514L21.1039 19.9781C20.7971 20.4384 20.4784 20.8903 20.1482 21.3333H25.2436C25.3607 21.3333 25.4692 21.2719 25.5294 21.1715L28.4187 16.356L24.1217 15.4514ZM13.3612 25.6431C11.0728 27.7993 8.04736 29.0002 4.90319 29.0002H3.33383C3.14978 29.0002 3.00055 28.851 3.0005 28.6669L3.00004 27.0983C2.99912 23.9533 4.19967 20.9268 6.35617 18.6377L7.99362 16.8995C9.53605 15.2622 11.2597 13.8056 13.1313 12.5579L17.5153 9.63521L19.8399 12.1123C19.8543 12.1277 19.8693 12.1427 19.8848 12.1572L22.3634 14.4833L19.4398 18.8687C18.1927 20.7394 16.7369 22.4623 15.1005 24.0042L13.3612 25.6431ZM8.6652 21.3335C8.6652 20.2289 9.56063 19.3335 10.6652 19.3335C11.7698 19.3335 12.6652 20.2289 12.6652 21.3335C12.6652 22.4381 11.7698 23.3335 10.6652 23.3335C9.56063 23.3335 8.6652 22.4381 8.6652 21.3335ZM23.3319 4.00013C22.1321 5.19992 22.1321 7.46698 23.3319 8.66676C24.5316 9.86655 26.7988 9.86659 27.9986 8.6668C29.6103 7.05508 29.9252 3.46515 29.985 2.34249C29.995 2.15446 29.8442 2.00371 29.6562 2.01373C28.5335 2.07357 24.9434 2.38867 23.3319 4.00013Z" fill="#8E8E8F"/>
<circle cx="25" cy="25" r="6" fill="#DD473B"/>
<path d="M27.2482 23.2554C27.3873 23.1163 27.3873 22.8908 27.2482 22.7518C27.1092 22.6127 26.8837 22.6127 26.7446 22.7518L25 24.4964L23.2554 22.7518C23.1163 22.6127 22.8908 22.6127 22.7518 22.7518C22.6127 22.8908 22.6127 23.1163 22.7518 23.2554L24.4964 25L22.7518 26.7446C22.6127 26.8837 22.6127 27.1092 22.7518 27.2482C22.8908 27.3873 23.1163 27.3873 23.2554 27.2482L25 25.5036L26.7446 27.2482C26.8837 27.3873 27.1092 27.3873 27.2482 27.2482C27.3873 27.1092 27.3873 26.8837 27.2482 26.7446L25.5036 25L27.2482 23.2554Z" fill="white"/>
</svg>