<svg width="32" height="32" viewBox="0 0 32 32" fill="none" xmlns="http://www.w3.org/2000/svg">
<g id="Iconly/Light-Outline/Setting">
<g id="Setting">
<g id="Group 3">
<mask id="mask0_2_7" style="mask-type:luminance" maskUnits="userSpaceOnUse" x="2" y="2" width="27" height="29">
<path id="Clip 2" fill-rule="evenodd" clip-rule="evenodd" d="M2.66666 2.66734H28.3798V30.2953H2.66666V2.66734Z" fill="white"/>
</mask>
<g mask="url(#mask0_2_7)">
<path id="Fill 1" fill-rule="evenodd" clip-rule="evenodd" d="M9.60293 23.254C9.90826 23.254 10.2136 23.2927 10.5123 23.3727C11.4136 23.6153 12.1963 24.218 12.6603 25.0273C12.9616 25.5353 13.1283 26.1287 13.1336 26.734C13.1336 27.6007 13.8296 28.2953 14.6856 28.2953H16.3563C17.2083 28.2953 17.9043 27.6047 17.9083 26.7527C17.9029 25.8113 18.2709 24.9167 18.9443 24.2433C19.6083 23.5793 20.5363 23.1807 21.4643 23.2073C22.0723 23.222 22.6576 23.386 23.1736 23.6793C23.9163 24.1047 24.8643 23.8513 25.2936 23.118L26.1789 21.642C26.3763 21.302 26.4336 20.8753 26.3283 20.482C26.2243 20.0887 25.9629 19.7473 25.6109 19.546C24.7869 19.0713 24.1989 18.306 23.9549 17.3887C23.7136 16.4887 23.8456 15.506 24.3163 14.6967C24.6229 14.1633 25.0723 13.714 25.6109 13.4047C26.3336 12.982 26.5869 12.0367 26.1669 11.3007C26.1496 11.2713 26.1336 11.2407 26.1203 11.2087L25.3389 9.854C24.9136 9.114 23.9669 8.85934 23.2243 9.282C22.4216 9.75667 21.4669 9.89267 20.5496 9.65134C19.6336 9.414 18.8656 8.834 18.3869 8.01534C18.0803 7.50334 17.9136 6.90734 17.9083 6.30067C17.9203 5.84467 17.7603 5.43534 17.4696 5.13534C17.1803 4.83667 16.7736 4.66734 16.3563 4.66734H14.6856C14.2723 4.66734 13.8856 4.82867 13.5936 5.11934C13.3029 5.41134 13.1443 5.79934 13.1469 6.21267C13.1189 8.162 11.5256 9.73134 9.59626 9.73134C8.9776 9.72467 8.3816 9.558 7.86426 9.24867C7.1376 8.83534 6.18826 9.09 5.76293 9.83L4.86026 11.314C4.44693 12.0313 4.70026 12.9793 5.43626 13.4073C6.52826 14.0393 7.2096 15.218 7.2096 16.482C7.2096 17.746 6.52826 18.9233 5.4336 19.5567C4.7016 19.9807 4.44826 20.9233 4.87226 21.6567L5.7136 23.1073C5.9216 23.482 6.2616 23.7527 6.65493 23.8633C7.04693 23.9727 7.47893 23.926 7.83893 23.726C8.36826 23.4153 8.98426 23.254 9.60293 23.254ZM16.3563 30.2953H14.6856C12.7269 30.2953 11.1336 28.7033 11.1336 26.7447C11.1309 26.5033 11.0616 26.2527 10.9323 26.0353C10.7229 25.67 10.3843 25.4087 9.9936 25.3047C9.6056 25.2007 9.18026 25.258 8.83093 25.4607C7.9936 25.9273 7.00826 26.0407 6.10693 25.7873C5.20693 25.5327 4.4296 24.914 3.9736 24.094L3.14026 22.658C2.1656 20.9673 2.7456 18.8007 4.4336 17.8247C4.91226 17.5487 5.2096 17.034 5.2096 16.482C5.2096 15.93 4.91226 15.414 4.4336 15.138C2.74426 14.1567 2.1656 11.9847 3.13893 10.294L4.04293 8.81C5.00426 7.138 7.1776 6.54867 8.87226 7.522C9.10293 7.65934 9.3536 7.72867 9.60826 7.73134C10.4389 7.73134 11.1336 7.046 11.1469 6.20334C11.1416 5.274 11.5083 4.382 12.1763 3.70867C12.8469 3.03667 13.7376 2.66734 14.6856 2.66734H16.3563C17.3109 2.66734 18.2389 3.05934 18.9043 3.74067C19.5683 4.426 19.9349 5.366 19.9069 6.31934C19.9096 6.534 19.9803 6.782 20.1083 6.99934C20.3203 7.35934 20.6549 7.61267 21.0523 7.71667C21.4496 7.81534 21.8656 7.762 22.2189 7.55267C23.9256 6.578 26.0976 7.162 27.0723 8.85533L27.9029 10.294C27.9243 10.3327 27.9429 10.37 27.9589 10.4087C28.8416 12.0767 28.2523 14.1767 26.6123 15.1353C26.3736 15.2727 26.1803 15.4647 26.0469 15.6967C25.8403 16.0553 25.7829 16.482 25.8869 16.874C25.9936 17.274 26.2483 17.606 26.6069 17.8113C27.4163 18.2767 28.0203 19.0607 28.2616 19.966C28.5029 20.87 28.3709 21.8513 27.9003 22.6607L27.0149 24.1353C26.0403 25.81 23.8683 26.39 22.1789 25.414C21.9536 25.2847 21.6936 25.214 21.4349 25.2073H21.4269C21.0416 25.2073 20.6456 25.3713 20.3576 25.658C20.0656 25.95 19.9056 26.3393 19.9083 26.7527C19.8989 28.7113 18.3056 30.2953 16.3563 30.2953Z" fill="#CACACA"/>
</g>
</g>
<path id="Fill 4" fill-rule="evenodd" clip-rule="evenodd" d="M15.5268 13.9661C14.1401 13.9661 13.0121 15.0955 13.0121 16.4821C13.0121 17.8688 14.1401 18.9955 15.5268 18.9955C16.9135 18.9955 18.0415 17.8688 18.0415 16.4821C18.0415 15.0955 16.9135 13.9661 15.5268 13.9661ZM15.5268 20.9955C13.0375 20.9955 11.0121 18.9715 11.0121 16.4821C11.0121 13.9928 13.0375 11.9661 15.5268 11.9661C18.0161 11.9661 20.0415 13.9928 20.0415 16.4821C20.0415 18.9715 18.0161 20.9955 15.5268 20.9955Z" fill="#CACACA"/>
</g>
</g>
</svg>
