<svg width="32" height="32" viewBox="0 0 32 32" fill="none" xmlns="http://www.w3.org/2000/svg">
<path fill-rule="evenodd" clip-rule="evenodd" d="M27.0953 1C23.4413 1 19.9252 2.39556 17.2658 4.90143L15.5265 6.54034C14.808 7.2173 14.1222 7.92695 13.471 8.66683H6.75492C5.93531 8.66683 5.17579 9.09686 4.75411 9.79967L1.14251 15.819C0.976113 16.0963 0.954113 16.437 1.08346 16.7334C1.2128 17.0299 1.47751 17.2454 1.79399 17.312L7.88958 18.5953C7.94115 18.661 7.99821 18.7235 8.0607 18.7821L10.722 21.2796L13.2179 23.9394C13.2766 24.0019 13.3391 24.059 13.4048 24.1105L14.6881 30.2062C14.7547 30.5226 14.9703 30.7874 15.2667 30.9167C15.5632 31.0461 15.9038 31.0241 16.1812 30.8577L22.2005 27.2461C22.9033 26.8244 23.3333 26.0649 23.3333 25.2452V18.5287C24.0735 17.8772 24.7835 17.1909 25.4607 16.4721L27.0981 14.7339C29.6043 12.0735 30.9996 8.55624 30.9985 4.90128L30.998 3.33265C30.9977 2.04425 29.9531 1 28.6647 1H27.0953ZM21.3333 20.1496C20.8898 20.4801 20.4374 20.7992 19.9766 21.1064L15.4513 24.1232L16.356 28.4204L21.1715 25.5311C21.2719 25.4708 21.3333 25.3623 21.3333 25.2452V20.1496ZM7.8768 16.5488L10.8946 12.0221C11.2015 11.5618 11.5202 11.1099 11.8503 10.6668H6.75492C6.63784 10.6668 6.52933 10.7283 6.46909 10.8287L3.57979 15.6442L7.8768 16.5488ZM18.6374 6.35704C20.9257 4.20083 23.9512 3 27.0953 3H28.6647C28.8488 3 28.998 3.14918 28.998 3.33324L28.9985 4.90187C28.9994 8.04683 27.7989 11.0733 25.6424 13.3625L24.0049 15.1007C22.4625 16.738 20.7388 18.1945 18.8672 19.4423L14.4832 22.3649L12.1587 19.8879C12.1442 19.8724 12.1292 19.8575 12.1138 19.843L9.63512 17.5169L12.5587 13.1315C13.8059 11.2607 15.2617 9.53783 16.898 7.99595L18.6374 6.35704ZM23.3333 10.6667C23.3333 11.7712 22.4379 12.6667 21.3333 12.6667C20.2288 12.6667 19.3333 11.7712 19.3333 10.6667C19.3333 9.5621 20.2288 8.66667 21.3333 8.66667C22.4379 8.66667 23.3333 9.5621 23.3333 10.6667ZM8.66664 28C9.86643 26.8002 9.86646 24.5332 8.66667 23.3334C7.46689 22.1336 5.19976 22.1336 3.99997 23.3334C2.38825 24.9451 2.07332 28.535 2.01355 29.6577C2.00354 29.8457 2.1543 29.9964 2.34233 29.9864C3.46503 29.9266 7.05518 29.6115 8.66664 28Z" fill="#8E8E8F"/>
<circle cx="25" cy="25" r="6" fill="#5F9C20"/>
<path fill-rule="evenodd" clip-rule="evenodd" d="M22 24.7143L24.3571 27.1429L28 23.4285L27.4429 22.8571L24.3571 26L22.5571 24.1428L22 24.7143Z" fill="white"/>
</svg>